<?xml version="1.0" standalone="no"?>
<!DOCTYPE svg PUBLIC "-//W3C//DTD SVG 20010904//EN"
 "http://www.w3.org/TR/2001/REC-SVG-20010904/DTD/svg10.dtd">
<svg version="1.0" xmlns="http://www.w3.org/2000/svg"
 width="400.000000pt" height="400.000000pt" viewBox="0 0 400.000000 400.000000"
 preserveAspectRatio="xMidYMid meet">
<metadata>
Created by potrace 1.11, written by Peter Selinger 2001-2013
</metadata>
<g transform="translate(0.000000,400.000000) scale(0.100000,-0.100000)"
fill="#000000" stroke="none">
<path d="M1735 3906 c-166 -28 -289 -74 -334 -124 -13 -15 -20 -20 -16 -12 6
12 5 13 -5 3 -8 -7 -16 -32 -19 -55 -5 -34 -10 -43 -26 -43 -11 0 -26 -5 -33
-12 -7 -7 -26 -9 -46 -6 -26 4 -36 1 -48 -15 -7 -11 -36 -32 -63 -46 -28 -14
-42 -26 -32 -26 26 0 20 -29 -7 -36 -14 -3 -48 -33 -78 -67 -29 -34 -45 -58
-35 -54 9 3 17 2 17 -3 0 -6 -4 -10 -9 -10 -5 0 -11 -9 -14 -21 -3 -12 -10
-18 -16 -14 -7 3 -11 -3 -11 -15 0 -12 -9 -43 -21 -70 -12 -27 -19 -55 -16
-62 2 -7 0 -24 -5 -38 -28 -75 -26 -318 3 -328 5 -2 9 -9 9 -17 0 -7 6 -18 14
-24 8 -7 27 -51 42 -99 15 -48 31 -91 35 -97 16 -17 9 -46 -13 -66 -13 -10
-17 -18 -10 -19 6 0 12 5 12 11 0 5 5 7 10 4 6 -3 10 -17 10 -31 0 -21 -2 -23
-20 -12 -10 7 -21 10 -24 7 -8 -7 -12 -197 -5 -204 6 -5 28 47 44 104 5 17 9
20 15 10 5 -7 6 -17 4 -21 -3 -5 2 -11 10 -14 17 -7 22 -54 6 -54 -5 0 -9 -12
-9 -27 1 -16 -4 -48 -10 -71 -11 -43 -11 -45 24 -83 36 -41 46 -32 20 17 -17
33 -21 99 -5 89 6 -3 10 -17 10 -31 0 -13 3 -24 8 -24 11 0 34 -104 27 -122
-4 -9 1 -18 9 -21 12 -5 16 -22 18 -64 1 -44 2 -50 6 -23 l5 35 7 -30 7 -30
12 30 c11 27 10 31 -8 44 -13 8 -21 24 -21 42 0 15 -5 31 -10 34 -6 4 -8 11
-5 16 4 5 3 15 -2 22 -4 6 -8 14 -8 17 -2 12 -27 87 -37 106 -6 12 -9 43 -7
68 2 25 0 48 -6 50 -6 3 -6 7 1 13 28 22 48 120 53 273 5 130 9 161 26 190 11
19 24 38 29 41 5 4 6 17 3 29 -3 12 -1 33 4 47 5 14 11 77 14 141 5 137 8 155
23 160 7 2 12 9 12 15 0 26 202 78 216 56 3 -5 16 -9 30 -9 15 0 24 -6 24 -16
0 -8 4 -13 9 -10 5 4 11 0 14 -6 4 -10 7 -11 18 0 18 17 32 15 25 -4 -3 -8 -2
-12 3 -9 5 3 12 1 16 -5 3 -5 17 -10 29 -10 27 0 31 -30 6 -42 -11 -6 -10 -7
5 -7 40 2 65 -1 64 -8 -3 -19 2 -34 9 -29 13 8 54 -25 49 -39 -4 -8 6 -11 35
-10 25 2 35 -1 27 -6 -8 -5 -9 -9 -4 -10 41 -5 95 -32 95 -46 0 -7 7 -10 17
-6 12 5 14 3 8 -7 -6 -10 -3 -12 11 -8 11 3 25 -1 32 -9 8 -7 8 -13 2 -13 -5
0 -10 -5 -10 -11 0 -6 7 -9 15 -5 8 3 50 -17 96 -46 69 -44 83 -50 100 -40 24
15 32 15 23 0 -5 -8 -2 -9 10 -5 14 6 17 3 12 -9 -4 -11 -2 -15 8 -11 8 3 24
-5 36 -18 13 -14 52 -38 86 -54 149 -70 354 -231 354 -278 0 -11 6 -32 13 -46
17 -32 37 -18 37 24 0 15 7 29 16 33 12 4 14 1 9 -14 -8 -24 3 -62 15 -55 8 5
23 -10 26 -25 20 -111 32 -129 33 -52 0 34 -4 64 -9 67 -18 11 -10 50 15 77
33 36 42 60 50 143 4 39 10 84 15 100 27 99 43 187 43 235 0 63 -37 177 -79
246 -16 25 -36 60 -45 77 -12 22 -18 27 -22 16 -4 -8 -4 -4 -2 8 4 12 -3 35
-15 55 -27 45 -155 173 -210 211 -25 17 -51 37 -57 43 -7 7 -29 18 -49 24 -23
8 -34 17 -30 25 3 10 0 12 -11 8 -10 -4 -14 -2 -10 4 4 6 -3 8 -17 6 -13 -3
-36 3 -50 13 -17 11 -55 19 -102 22 -48 3 -71 8 -62 13 11 7 10 11 -2 19 -19
12 0 13 32 1 13 -4 43 -11 68 -14 41 -5 42 -5 15 5 -16 6 -36 18 -44 25 -8 8
-22 12 -32 10 -11 -3 -22 -1 -25 4 -3 5 -14 9 -24 9 -11 0 -39 7 -62 14 -60
21 -79 23 -214 30 -78 3 -146 1 -199 -8z m278 -83 c-7 -2 -21 -2 -30 0 -10 3
-4 5 12 5 17 0 24 -2 18 -5z m-630 -88 c-3 -9 -8 -14 -10 -11 -3 3 -2 9 2 15
9 16 15 13 8 -4z m327 -99 c0 -2 -9 -6 -20 -9 -11 -3 -18 -1 -14 4 5 9 34 13
34 5z m88 -491 c-3 -3 -9 2 -12 12 -6 14 -5 15 5 6 7 -7 10 -15 7 -18z m99 -1
c-3 -3 -12 -4 -19 -1 -8 3 -5 6 6 6 11 1 17 -2 13 -5z m58 -34 c3 -5 1 -10 -4
-10 -6 0 -11 5 -11 10 0 6 2 10 4 10 3 0 8 -4 11 -10z m545 -200 c0 -5 -7 -7
-15 -4 -8 4 -15 8 -15 10 0 2 7 4 15 4 8 0 15 -4 15 -10z m-120 -66 c0 -6 -54
17 -68 28 -10 8 -10 13 -1 19 9 5 69 -35 69 -47z"/>
<path d="M2190 2910 c0 -5 9 -14 21 -20 19 -11 20 -10 9 9 -11 22 -30 29 -30
11z"/>
<path d="M2247 2879 c7 -7 15 -10 18 -7 3 3 -2 9 -12 12 -14 6 -15 5 -6 -5z"/>
<path d="M2417 2764 c-4 -4 -21 -8 -39 -8 -18 -1 -38 -4 -43 -8 -6 -3 -25 -9
-43 -13 -18 -4 -45 -13 -60 -21 -15 -8 -32 -14 -38 -14 -18 0 -111 -63 -123
-83 -9 -13 -8 -22 2 -37 8 -11 18 -17 23 -12 4 4 2 -1 -5 -10 -11 -15 -11 -18
2 -18 10 0 14 -6 11 -15 -4 -9 0 -15 9 -15 10 0 13 -7 10 -24 -4 -20 0 -24 26
-28 17 -2 31 -1 31 4 0 4 -12 8 -27 8 -26 0 -25 1 18 40 46 42 65 50 55 25 -3
-8 0 -26 6 -40 10 -22 18 -25 59 -25 53 0 80 18 72 50 -8 30 31 26 52 -6 9
-14 19 -23 22 -20 4 3 12 1 20 -5 7 -6 13 -8 13 -4 0 4 7 2 15 -5 9 -7 19 -10
23 -6 4 4 -1 13 -11 21 -9 7 -15 19 -12 27 6 16 -58 88 -79 88 -7 0 -25 11
-39 24 l-27 25 54 6 c30 4 68 4 86 0 39 -9 38 12 -1 32 -13 7 -23 18 -21 24 2
7 -5 9 -16 7 -11 -3 -26 -1 -33 4 -11 7 -9 8 5 4 13 -5 17 -2 12 9 -6 17 9 21
19 5 3 -5 14 -10 23 -10 10 0 12 3 7 9 -15 13 -50 22 -58 15z m1 -190 c61 -36
52 -47 -13 -18 -31 14 -75 27 -98 29 -54 3 -57 5 -27 15 36 12 89 2 138 -26z
m-131 -50 c-3 -3 -12 -4 -19 -1 -8 3 -5 6 6 6 11 1 17 -2 13 -5z"/>
<path d="M1439 2708 c-12 -5 -30 -6 -40 -3 -9 3 -20 1 -24 -5 -3 -6 -11 -8
-16 -5 -5 4 -9 1 -9 -5 0 -6 -5 -8 -10 -5 -14 9 -62 -23 -55 -36 4 -5 -1 -12
-9 -15 -12 -4 -13 -11 -6 -24 11 -20 22 -20 112 -1 32 7 62 10 67 6 13 -8 2
-36 -13 -33 -6 1 -21 -3 -34 -10 -12 -7 -28 -10 -34 -6 -6 4 -8 3 -4 -4 3 -6
-4 -18 -16 -26 -12 -9 -19 -19 -15 -22 4 -4 13 -1 22 6 21 18 19 4 -4 -17 -10
-10 -22 -28 -25 -40 -7 -22 -5 -23 52 -23 l59 0 16 40 c8 22 19 40 24 40 5 0
17 -16 26 -35 15 -32 20 -35 61 -35 49 0 76 24 76 67 0 30 9 29 48 -8 38 -36
40 -46 10 -52 -13 -3 -6 -4 15 -4 29 1 37 5 37 19 0 11 7 18 20 18 11 0 20 -4
20 -9 0 -5 9 -7 21 -4 17 5 20 11 15 36 -3 16 -1 36 5 43 8 9 5 15 -10 24 -12
6 -21 16 -21 23 -1 12 -105 68 -126 67 -6 0 -25 7 -42 16 -18 8 -36 13 -41 10
-5 -4 -22 -1 -38 5 -35 14 -86 17 -114 7z m121 -126 c0 -4 -22 -13 -50 -18
-54 -11 -57 -6 -7 13 39 14 57 16 57 5z"/>
<path d="M2773 2493 c4 -3 2 -11 -3 -18 -6 -8 -5 -18 5 -31 13 -18 14 -16 15
19 0 22 -5 37 -12 37 -6 0 -8 -3 -5 -7z"/>
<path d="M2224 2388 c24 -14 123 -23 111 -10 -5 5 -36 12 -68 14 -37 3 -53 2
-43 -4z"/>
<path d="M1610 2374 c-25 -7 -61 -14 -80 -14 -30 -1 -32 -2 -16 -11 24 -15 81
-7 137 19 52 24 27 28 -41 6z"/>
<path d="M2780 2320 c-9 -16 -9 -25 -1 -33 16 -16 13 -79 -4 -101 -23 -30 -18
-36 15 -20 17 9 33 26 36 40 9 36 -2 104 -19 122 -13 13 -16 12 -27 -8z"/>
<path d="M1683 2136 c-9 -11 -4 -27 20 -76 18 -35 35 -61 39 -59 4 2 15 -6 24
-19 11 -17 25 -22 52 -22 20 0 70 1 111 0 41 0 76 2 78 4 2 2 -1 14 -7 28 -9
20 -20 25 -55 27 -24 1 -58 6 -76 11 -19 6 -55 10 -80 10 -55 0 -69 13 -76 70
-6 43 -11 47 -30 26z"/>
<path d="M2108 2048 c-16 -5 -28 -14 -28 -19 0 -5 -6 -9 -14 -9 -7 0 -19 -7
-26 -15 -16 -19 -7 -19 30 0 16 8 36 12 44 9 9 -3 16 -2 16 4 0 5 9 12 21 15
12 3 18 10 14 16 -7 13 -21 13 -57 -1z"/>
<path d="M2395 1958 c4 -13 13 -33 21 -45 8 -12 14 -35 15 -50 l1 -28 9 27 c8
20 6 34 -5 57 -9 16 -16 37 -16 46 0 8 -7 15 -16 15 -11 0 -14 -6 -9 -22z"/>
<path d="M1180 1925 c0 -8 2 -15 4 -15 2 0 6 7 10 15 3 8 1 15 -4 15 -6 0 -10
-7 -10 -15z"/>
<path d="M1190 1890 c0 -32 13 -90 20 -90 12 0 7 64 -6 85 -10 14 -14 15 -14
5z"/>
<path d="M1272 1800 c-8 -13 -8 -20 -2 -20 6 0 13 7 17 15 9 24 -1 27 -15 5z"/>
<path d="M2059 1816 c-3 -3 -110 -6 -237 -8 -195 -2 -232 -5 -230 -17 4 -17
14 -22 104 -51 44 -15 78 -20 90 -16 18 8 18 8 -1 16 -12 5 37 9 120 9 77 1
156 6 175 11 19 6 60 11 90 11 65 1 160 25 160 40 0 8 -24 9 -77 4 -97 -9
-120 -9 -158 0 -17 3 -33 4 -36 1z"/>
<path d="M1220 1756 c0 -16 18 -31 27 -22 3 3 -2 12 -11 21 -14 14 -16 14 -16
1z"/>
<path d="M1270 1724 c0 -14 -4 -23 -10 -19 -5 3 -10 -1 -10 -10 0 -9 -5 -13
-11 -10 -6 4 -5 -2 2 -13 7 -12 17 -20 22 -19 5 1 12 -4 15 -12 3 -8 0 -11 -7
-7 -7 5 -9 1 -5 -8 3 -9 10 -13 15 -10 5 3 9 1 9 -5 0 -5 -4 -12 -10 -16 -5
-3 -1 -20 10 -41 11 -19 20 -42 20 -51 0 -15 26 -79 51 -125 6 -12 6 -18 -1
-18 -5 0 -10 -6 -10 -13 0 -19 29 -75 43 -84 7 -5 20 -21 29 -38 10 -16 22
-29 28 -27 5 1 9 -1 8 -5 -4 -11 74 -88 104 -104 22 -12 22 -12 3 -19 -20 -8
-20 -8 0 -16 11 -4 26 -15 33 -23 9 -10 11 -11 6 -2 -5 10 -3 12 5 7 7 -5 10
-11 7 -14 -3 -3 1 -13 10 -23 15 -16 18 -16 31 -3 9 8 18 12 22 8 3 -4 0 -9
-6 -11 -16 -6 -17 -33 -2 -33 5 0 7 5 4 10 -3 5 1 10 9 10 8 0 17 -4 20 -9 4
-5 25 -7 48 -4 45 5 61 13 41 20 -10 4 -9 8 1 19 8 8 19 14 25 14 6 0 11 5 11
10 0 6 9 10 20 10 11 0 20 -4 20 -10 0 -5 -7 -10 -15 -10 -8 0 -15 -3 -15 -7
0 -5 24 -9 54 -10 41 -2 56 1 60 13 3 8 14 14 23 13 41 -4 51 1 46 21 -4 15 0
20 14 20 11 0 23 3 27 8 11 10 30 9 37 -1 4 -5 16 -4 28 2 23 13 45 6 36 -10
-8 -12 6 -11 25 1 13 8 13 10 0 10 -10 0 -11 3 -3 11 7 7 34 11 61 11 36 -1
52 3 56 14 5 12 0 14 -29 8 -25 -4 -35 -3 -35 6 0 7 8 10 19 7 10 -2 29 4 42
14 13 10 18 19 11 19 -26 0 -1 18 34 25 20 3 44 13 52 21 24 24 5 28 -24 5
-28 -22 -44 -27 -44 -12 0 5 14 14 30 21 17 7 30 19 30 27 0 8 3 12 8 9 4 -2
18 2 32 10 14 7 19 13 11 14 -19 0 6 30 26 30 12 0 13 3 4 14 -9 11 -9 15 1
19 11 4 10 6 0 6 -7 1 -10 6 -7 11 3 6 1 10 -4 10 -6 0 -11 -5 -11 -11 0 -5
-4 -7 -10 -4 -6 4 -10 -5 -10 -19 0 -14 -4 -26 -10 -26 -5 0 -7 7 -4 15 3 8 2
20 -2 26 -5 9 -12 1 -21 -22 -8 -22 -12 -25 -9 -9 3 14 -1 33 -8 43 -13 16
-14 16 -19 -3 -3 -14 -12 -20 -24 -18 -14 2 -17 -3 -15 -24 2 -21 -1 -26 -13
-22 -8 3 -15 12 -15 20 0 8 -4 14 -10 14 -5 0 -10 -5 -10 -11 0 -6 -9 -8 -20
-4 -16 5 -19 3 -13 -12 6 -15 4 -16 -9 -5 -16 13 -48 7 -48 -10 0 -6 -9 -8
-20 -5 -11 3 -18 1 -14 -4 8 -13 -20 -11 -34 3 -8 8 -12 9 -12 1 0 -7 -14 -10
-37 -7 -21 2 -64 4 -95 4 -49 0 -58 3 -59 17 0 16 -1 16 -7 2 -4 -9 -16 -15
-27 -13 -10 2 -24 -1 -30 -6 -16 -13 -85 8 -92 28 -9 21 -35 52 -45 52 -5 0
-8 -7 -8 -15 0 -8 -5 -15 -11 -15 -5 0 -8 4 -5 8 3 5 -9 19 -26 33 -50 40 -67
60 -61 75 3 8 -1 14 -10 14 -8 0 -18 8 -22 18 -7 16 -8 15 -16 -3 -8 -16 -8
-15 -4 8 6 28 -9 38 -18 13 -8 -20 -49 -16 -65 6 -7 10 -18 16 -23 13 -5 -3
-6 0 -4 7 3 8 -6 28 -19 47 -14 18 -22 40 -19 49 5 11 1 14 -14 10 -15 -4 -19
-1 -17 11 5 21 -15 51 -23 34 -8 -22 -36 -15 -30 7 6 25 -11 26 -29 3 -11 -16
-12 -13 -7 20 3 20 3 37 -1 37 -3 0 -6 -12 -6 -26z"/>
<path d="M2589 1635 c0 -5 -2 -18 -4 -28 -2 -10 0 -31 5 -47 6 -21 5 -30 -6
-34 -9 -3 -14 1 -14 12 -1 13 -4 11 -15 -8 -19 -33 -19 -45 1 -29 13 11 15 11
14 -2 -8 -51 10 -51 38 0 26 46 28 63 5 54 -14 -5 -15 -1 -10 29 3 19 1 41 -4
49 -5 8 -9 10 -10 4z"/>
<path d="M2540 1591 c0 -11 5 -23 10 -26 6 -4 10 5 10 19 0 14 -4 26 -10 26
-5 0 -10 -9 -10 -19z"/>
<path d="M2496 1453 c-6 -14 -5 -15 5 -6 7 7 10 15 7 18 -3 3 -9 -2 -12 -12z"/>
<path d="M2540 1443 c0 -11 -6 -23 -14 -26 -8 -3 -20 -16 -26 -28 -12 -21 -12
-21 18 -3 32 19 48 52 32 68 -7 7 -10 3 -10 -11z"/>
<path d="M2330 1170 c0 -5 5 -10 10 -10 6 0 10 5 10 10 0 6 -4 10 -10 10 -5 0
-10 -4 -10 -10z"/>
<path d="M440 305 c-7 -9 -11 -17 -9 -20 3 -2 10 5 17 15 14 24 10 26 -8 5z"/>
</g>
</svg>
